<svg width="96" height="92" viewBox="0 0 96 92" fill="none" xmlns="http://www.w3.org/2000/svg">
<g clip-path="url(#clip0_6_18)">
<path d="M88.3762 0H7C3.13401 0 0 3.134 0 7V85C0 88.866 3.134 92 7 92H88.3762C92.2422 92 95.3762 88.866 95.3762 85V7C95.3762 3.13401 92.2422 0 88.3762 0Z" fill="#1E2A4A"/>
<path d="M10.1284 46.8829V33.5914H13.7613C15.0891 33.5914 16.2139 33.7912 17.1355 34.189C18.0572 34.5877 18.8041 35.1202 19.3762 35.7882C19.9483 36.4562 20.3623 37.1885 20.621 37.985C20.8788 38.7815 21.0086 39.5841 21.0086 40.3929C21.0086 41.398 20.8338 42.2984 20.4833 43.0949C20.1328 43.8914 19.6534 44.5717 19.0451 45.1359C18.4369 45.7 17.7359 46.1322 16.9431 46.4323C16.1503 46.7324 15.3107 46.8829 14.4261 46.8829H10.1284ZM11.9171 45.1728H14.0747C14.7995 45.1728 15.4732 45.0628 16.0938 44.8419C16.7144 44.621 17.2556 44.3024 17.7165 43.8861C18.1773 43.4698 18.5375 42.9576 18.7953 42.3512C19.0531 41.7448 19.1829 41.0486 19.1829 40.2644C19.1829 39.4803 19.0478 38.7419 18.7767 38.1231C18.5066 37.5044 18.1376 36.9869 17.6705 36.5697C17.2035 36.1534 16.6747 35.8375 16.085 35.6227C15.4952 35.4089 14.8799 35.3006 14.2407 35.3006H11.9171V45.1728Z" fill="white"/>
<path d="M23.1846 40.246C23.1846 39.3271 23.3594 38.4567 23.7099 37.6356C24.0603 36.8144 24.5486 36.0883 25.1754 35.4573C25.8022 34.8262 26.5244 34.3334 27.3419 33.9778C28.1594 33.6222 29.0414 33.4445 29.9878 33.4445C30.9342 33.4445 31.7826 33.6222 32.6063 33.9778C33.43 34.3334 34.1583 34.8262 34.7913 35.4573C35.4243 36.0883 35.9196 36.8153 36.2762 37.6356C36.6329 38.4567 36.8112 39.3333 36.8112 40.2644C36.8112 41.1956 36.6329 42.0722 36.2762 42.8933C35.9196 43.7145 35.4278 44.4344 34.801 45.0531C34.1742 45.6719 33.4485 46.1559 32.6248 46.5053C31.8011 46.8547 30.9218 47.029 29.9878 47.029C29.0537 47.029 28.1594 46.8574 27.3419 46.5141C26.5244 46.1709 25.8022 45.6903 25.1754 45.0707C24.5486 44.452 24.0595 43.7347 23.7099 42.9198C23.3594 42.1048 23.1846 41.2141 23.1846 40.246ZM25.0288 40.246C25.0288 40.9571 25.1551 41.6154 25.4067 42.2227C25.6583 42.8291 26.015 43.3651 26.4767 43.8315C26.9375 44.2971 27.4664 44.6624 28.0623 44.9255C28.6582 45.1896 29.3071 45.3207 30.0081 45.3207C30.709 45.3207 31.357 45.1896 31.9538 44.9255C32.5498 44.6624 33.0724 44.3006 33.5209 43.8412C33.9694 43.3818 34.3234 42.8458 34.5812 42.2324C34.839 41.6198 34.9688 40.9641 34.9688 40.2653C34.9688 39.5665 34.8399 38.8932 34.5812 38.2798C34.3234 37.6672 33.9694 37.1251 33.5209 36.6525C33.0724 36.1807 32.5436 35.8128 31.9353 35.5497C31.327 35.2865 30.6781 35.1545 29.9895 35.1545C29.3009 35.1545 28.6344 35.2892 28.0252 35.5594C27.4169 35.8287 26.8881 36.1966 26.4396 36.6621C25.9902 37.1277 25.6433 37.6708 25.3979 38.2895C25.1515 38.9082 25.0288 39.5612 25.0288 40.2477V40.246Z" fill="white"/>
<path d="M53.0769 33.1689V46.882H51.2883V38.2947L46.4017 45.2098H46.3647L41.5514 38.5236V46.882H39.8175V33.1689H39.836L46.392 42.4629L53.0584 33.1689H53.0769Z" fill="white"/>
<path d="M67.2201 33.5914L62.2409 42.4515V46.882H60.4531V42.4515L55.5101 33.5914H57.7057L61.4013 40.429L65.0439 33.5914H67.2201Z" fill="white"/>
<path d="M86.0855 33.5914L80.2023 47.5078L74.3013 33.5914H76.4405L80.2738 43.1926L83.9649 33.5914H86.0855Z" fill="white"/>
<path d="M10.1284 51.0485V72.4422H12.3479V51.0485H10.1284Z" fill="white"/>
<path d="M17.4904 51.0485V53.1431H23.0638V72.4422H25.2833V53.1431H30.9732V51.0485H17.4904Z" fill="white"/>
<path d="M41.32 51.3335L32.4615 72.4421H34.5963L36.7858 67.0813L36.8652 66.8868H45.4446L45.5233 67.0849L47.6333 72.4421H50.204L41.32 51.3335ZM37.6129 65.0553L37.7887 64.6258L40.9377 56.9178L41.2327 56.1952L41.5187 56.9213L44.5547 64.6294L44.7225 65.0562H37.6121L37.6129 65.0553Z" fill="white"/>
<path d="M58.8957 70.3476V51.0485H56.6771V72.4422H69.6602V70.3476H58.8957Z" fill="white"/>
<path d="M74.9203 50.9956V72.4422H77.1398V50.9956H74.9203Z" fill="white"/>
<path d="M83.866 50.9956V72.4422H86.0855V50.9956H83.866Z" fill="white"/>
<path d="M50.9431 51.0485V52.5464H45.3856L44.7482 51.0485H50.9431Z" fill="white"/>
<path d="M86.0857 26.2768V29.3035L48.3229 18.2193L10.1294 29.4293V26.4026L48.3229 15.1926L86.0857 26.2768Z" fill="white"/>
</g>
<defs>
<clipPath id="clip0_6_18">
<rect width="96" height="92" fill="white"/>
</clipPath>
</defs>
</svg>
